<svg xmlns="http://www.w3.org/2000/svg" viewBox="0 0 22.578 22.578" height="64pt" width="64pt"><path d="M7.014.97a.333.333 0 00-.322.335v.665h-2.33a.333.333 0 00-.334.332v1.332c.001.184.15.332.334.332h2.33v.665c0 .296.357.445.567.236l1.667-1.663a.333.333 0 000-.472L7.259 1.069A.333.333 0 007.014.97zm4.201.023a.333.333 0 00-.331.334v2.66c0 .185.148.334.331.335h2.635a.333.333 0 00.236-.096l1.359-1.339a.333.333 0 00.098-.238V1.327a.333.333 0 00-.332-.334zm.335.665h3.327v.85l-1.162 1.148H11.55zm-4.192.448l.86.862-.86.86v-.194a.333.333 0 00-.332-.334H4.694v-.666h2.332a.335.335 0 00.332-.332zm7.875 1.882V5.12h-5.182a.31.31 0 00-.31.31v4.498a.835.835 0 00-.358.154l-1.07.806-1.089-.882-2.13-.703-2.982.442a.333.333 0 00-.263.216l-.725 2.003a.964.964 0 00.513 1.206l.202.089a.893.893 0 001.19-.502l.427-1.152.636.101-.649 3.924-1.258-.231a.88.88 0 00-1.027.772l-.03.309a.978.978 0 00.785 1.055l2.499.486a.333.333 0 00.346-.148l.843-1.342.997.109.207 2.491a.916.916 0 00.997.831l.43-.042a.92.92 0 00.819-1.01l-.415-3.845a.333.333 0 00-.268-.29l-1.72-.33.523-1.842.806.643a.333.333 0 00.4.013l1.364-.98v7.577c0 .17.14.31.31.31h5.182v1.133c0 .201.19.349.386.3l5.659-1.443a.31.31 0 00.233-.3V5.43a.31.31 0 00-.233-.3l-5.71-1.446c-.212.01-.334.144-.335.304zm.62.4l5.039 1.283v13.945l-5.04 1.282zM7.065 5.631a1.67 1.67 0 00-1.666 1.664c0 .915.75 1.664 1.666 1.664a1.67 1.67 0 001.664-1.664 1.67 1.67 0 00-1.664-1.664zm3.296.109h4.872v13.804h-4.872v-7.712l.093-.067a.979.979 0 00.27-1.288l-.088-.147a.837.837 0 00-.275-.28zm-3.296.558c.556 0 .998.442.998.997a.993.993 0 01-.998.998c-.555 0-1-.443-1-.998a.994.994 0 011-.997zM5.038 9.966l1.863.622 1.191.98a.334.334 0 00.41.01l1.281-.962a.184.184 0 01.28.054l.089.147a.305.305 0 01-.087.408l-1.87 1.346-1-.8a.333.333 0 00-.528.169l-.76 2.673a.333.333 0 00.259.418l1.833.351.388 3.6a.243.243 0 01-.22.275l-.428.044h-.003a.24.24 0 01-.268-.223l-.228-2.767a.333.333 0 00-.298-.303l-1.474-.159a.333.333 0 00-.32.152l-.832 1.325-2.276-.445a.305.305 0 01-.25-.334l.032-.31a.2.2 0 01.243-.182l1.592.293a.333.333 0 00.39-.275l.756-4.588a.333.333 0 00-.276-.381l-1.233-.201a.333.333 0 00-.366.213l-.524 1.41a.214.214 0 01-.295.124l-.201-.089a.292.292 0 01-.16-.371l.66-1.816z" fill="#fff"/></svg>