<svg viewBox="0 0 20 19.84" xmlns="http://www.w3.org/2000/svg"><path d="M15.65 9.93a.39.39 0 00-.53 0l-.57.57-.55-.57a.39.39 0 00-.53 0 .37.37 0 000 .53L14 11l-.57.57a.37.37 0 000 .53.38.38 0 00.26.11.39.39 0 00.27-.11l.57-.57.57.57a.38.38 0 00.26.11.4.4 0 00.27-.11.39.39 0 000-.53l-.55-.57.57-.57a.39.39 0 000-.5zm-5.84 3.49l-1.52 1.71-.53-.41a.37.37 0 10-.46.59l.8.63a.34.34 0 00.23.08.36.36 0 00.28-.12l1.76-2a.38.38 0 000-.53.37.37 0 00-.56.05zM5.33 6.7h6.19a.37.37 0 00.37-.38.36.36 0 00-.37-.32H5.33a.37.37 0 00-.33.32.38.38 0 00.33.38zm.02 2.7H9a.38.38 0 00.38-.4.37.37 0 00-.38-.35H5.35A.37.37 0 005 9a.38.38 0 00.35.4z" fill="#fff"/><path d="M17.87 11.17A3.29 3.29 0 0017 8.74a3.33 3.33 0 00-1.66-1V5.05a1.93 1.93 0 00-1.93-1.93h-3.13v-.37a1.41 1.41 0 00-2.82 0v.37H4.05a1.93 1.93 0 00-1.93 1.93v11.49a1.94 1.94 0 001.93 1.93h9.36a1.94 1.94 0 001.93-1.93v-2.27a3.31 3.31 0 002.53-3.1zM8.21 2.75a.66.66 0 011.32 0v.38H8.21zm-4.16 15a1.18 1.18 0 01-1.18-1.18V5.05a1.18 1.18 0 011.18-1.18h9.36a1.18 1.18 0 011.18 1.18v2.59a2.48 2.48 0 00-.47 0H14a4.56 4.56 0 00-.53.13h-.1a4 4 0 00-.47.22l-.12.06a3 3 0 00-.53.4 3.3 3.3 0 00-1.1 2.33 2.66 2.66 0 000 .49h-.07a3.92 3.92 0 00-.53-.29l-.19-.08-.48-.15h-.21a3.26 3.26 0 00-.7-.07 3.89 3.89 0 00-3.89 3.88 4.17 4.17 0 00.07.71.59.59 0 010 .13 4.21 4.21 0 00.2.63l.05.11a4.83 4.83 0 00.3.55v.06a4.11 4.11 0 00.42.5.94.94 0 00.1.1 3.5 3.5 0 00.46.39zm4.9 0a3.14 3.14 0 113.13-3.14A3.15 3.15 0 019 17.68zm5.64-3.29v2.15a1.18 1.18 0 01-1.18 1.18h-2.23a3.5 3.5 0 00.46-.39.94.94 0 00.1-.1 4.11 4.11 0 00.42-.5v-.06a4.83 4.83 0 00.3-.55v-.11a4.21 4.21 0 00.2-.63v-.13a3.74 3.74 0 000-1.33h.1a3.27 3.27 0 00.51.22.73.73 0 00.19.07 3.91 3.91 0 00.76.14h.25zm.32-.78a3.08 3.08 0 01-.53 0 2.83 2.83 0 01-.52-.08h-.06a2.62 2.62 0 01-1.88-2.08 2.33 2.33 0 010-.53 2.84 2.84 0 01.07-.52 1 1 0 010-.1 2.58 2.58 0 01.14-.39l.07-.12a3.21 3.21 0 01.19-.31 2.43 2.43 0 01.34-.38 1.67 1.67 0 01.16-.17c.08-.06.15-.13.23-.18l.19-.09a2.06 2.06 0 01.26-.12 1.66 1.66 0 01.21-.06 1.34 1.34 0 01.27-.07.78.78 0 01.22 0 2 2 0 01.35 0h.29a2.59 2.59 0 012.2 2.7 2.63 2.63 0 01-2.21 2.48z" fill="#fff"/></svg>