<svg width="48" height="48" fill="none" xmlns="http://www.w3.org/2000/svg"><path fill-rule="evenodd" clip-rule="evenodd" d="M16.632 0h14.736C44.816 0 48 3.184 48 16.632v14.736C48 44.816 44.816 48 31.368 48H16.632C3.184 48 0 44.816 0 31.368V16.632C0 3.184 3.184 0 16.632 0z" fill="#E11B7E"/><path fill-rule="evenodd" clip-rule="evenodd" d="M16.632 0h14.736C44.816 0 48 3.184 48 16.632v14.736C48 44.816 44.816 48 31.368 48H16.632C3.184 48 0 44.816 0 31.368V16.632C0 3.184 3.184 0 16.632 0z" fill="url(#paint0_linear_216_137)"/><path fill-rule="evenodd" clip-rule="evenodd" d="M16.632 0h14.736C44.816 0 48 3.184 48 16.632v14.736C48 44.816 44.816 48 31.368 48H16.632C3.184 48 0 44.816 0 31.368V16.632C0 3.184 3.184 0 16.632 0z" fill="url(#paint1_radial_216_137)"/><path fill-rule="evenodd" clip-rule="evenodd" d="M16.632 0h14.736C44.816 0 48 3.184 48 16.632v14.736C48 44.816 44.816 48 31.368 48H16.632C3.184 48 0 44.816 0 31.368V16.632C0 3.184 3.184 0 16.632 0z" fill="url(#paint2_radial_216_137)"/><path fill-rule="evenodd" clip-rule="evenodd" d="M24.001 11c-3.53 0-3.974.015-5.36.079-1.384.063-2.329.282-3.155.603a6.365 6.365 0 00-2.303 1.5 6.38 6.38 0 00-1.5 2.302c-.323.827-.542 1.772-.605 3.155C11.016 20.026 11 20.47 11 24c0 3.532.016 3.973.079 5.36.063 1.384.282 2.328.603 3.155a6.37 6.37 0 001.5 2.303 6.364 6.364 0 002.302 1.5c.827.322 1.772.541 3.156.604 1.386.064 1.83.079 5.36.079 3.53 0 3.972-.015 5.359-.079 1.384-.063 2.33-.282 3.157-.604a6.36 6.36 0 002.3-1.5 6.38 6.38 0 001.501-2.303c.32-.827.54-1.771.604-3.155.062-1.387.079-1.829.079-5.36 0-3.53-.017-3.973-.079-5.36-.065-1.383-.284-2.328-.604-3.155a6.38 6.38 0 00-1.5-2.303 6.355 6.355 0 00-2.302-1.498c-.829-.322-1.774-.541-3.158-.604-1.387-.064-1.828-.079-5.36-.079h.004zm-.434 2.342h.434c3.471 0 3.882.013 5.253.075 1.268.058 1.956.27 2.414.448a4.02 4.02 0 011.494.972c.455.455.736.889.973 1.495.178.458.39 1.146.447 2.413.063 1.37.076 1.783.076 5.252 0 3.47-.013 3.881-.076 5.251-.058 1.268-.27 1.956-.447 2.413a4.018 4.018 0 01-.973 1.494 4.02 4.02 0 01-1.494.972c-.458.179-1.146.39-2.414.448-1.37.063-1.782.076-5.253.076s-3.883-.014-5.253-.076c-1.268-.058-1.955-.27-2.414-.448a4.027 4.027 0 01-1.495-.972 4.028 4.028 0 01-.973-1.495c-.178-.457-.39-1.145-.447-2.413-.063-1.37-.075-1.782-.075-5.253 0-3.472.012-3.881.075-5.252.057-1.267.27-1.955.447-2.413a4.03 4.03 0 01.973-1.495 4.035 4.035 0 011.495-.973c.458-.179 1.146-.39 2.414-.448 1.2-.055 1.664-.07 4.087-.074v.004h.732zm5.813 3.719a1.56 1.56 0 113.12 0 1.56 1.56 0 01-3.12 0z" fill="#fff"/><path fill-rule="evenodd" clip-rule="evenodd" d="M17.094 23.77a6.676 6.676 0 1113.35-.001 6.676 6.676 0 01-13.35 0zm11.01 0a4.333 4.333 0 10-8.668 0 4.333 4.333 0 008.667 0z" fill="#fff"/><defs><radialGradient id="paint1_radial_216_137" cx="0" cy="0" r="1" gradientUnits="userSpaceOnUse" gradientTransform="rotate(-36.119 78.89 7.791) scale(44.3335)"><stop offset=".13" stop-color="#FFAD05"/><stop offset="1" stop-color="#FF3F00" stop-opacity="0"/></radialGradient><radialGradient id="paint2_radial_216_137" cx="0" cy="0" r="1" gradientUnits="userSpaceOnUse" gradientTransform="rotate(-40.601 71.734 5.468) scale(30.0355)"><stop offset=".01" stop-color="#FDDB86"/><stop offset="1" stop-color="#F06942" stop-opacity="0"/></radialGradient><linearGradient id="paint0_linear_216_137" x1="5.273" y1="0" x2="21.047" y2="43.008" gradientUnits="userSpaceOnUse"><stop offset=".04" stop-color="#4263DF"/><stop offset="1" stop-color="#D53585" stop-opacity="0"/></linearGradient></defs></svg>