<svg width="48" height="48" fill="none" xmlns="http://www.w3.org/2000/svg"><path fill-rule="evenodd" clip-rule="evenodd" d="M16.632 0h14.736C44.816 0 48 3.184 48 16.632v14.736C48 44.816 44.816 48 31.368 48H16.632C3.184 48 0 44.816 0 31.368V16.632C0 3.184 3.184 0 16.632 0z" fill="#2DA4D7"/><path d="M20.78 33.667c-.775 0-.644-.295-.91-1.039l-2.279-7.563 17.534-10.493" fill="#C8DAEA"/><path d="M20.78 33.667c.597 0 .861-.276 1.195-.603l3.188-3.127-3.977-2.42" fill="#A9C9DD"/><path d="M21.186 27.519L30.82 34.7c1.1.612 1.893.295 2.167-1.03l3.922-18.645c.402-1.625-.613-2.361-1.665-1.88l-23.031 8.96c-1.572.636-1.563 1.52-.287 1.915l5.91 1.86 13.683-8.708c.646-.395 1.24-.183.753.253" fill="url(#paint0_linear_216_164)"/><defs><linearGradient id="paint0_linear_216_164" x1="22.169" y1="24.094" x2="24.766" y2="32.417" gradientUnits="userSpaceOnUse"><stop stop-color="#EFF7FC"/><stop offset="1" stop-color="#fff"/></linearGradient></defs></svg>