<svg width="48" height="48" fill="none" xmlns="http://www.w3.org/2000/svg"><path fill-rule="evenodd" clip-rule="evenodd" d="M16.632 0h14.736C44.816 0 48 3.184 48 16.632v14.736C48 44.816 44.816 48 31.368 48H16.632C3.184 48 0 44.816 0 31.368V16.632C0 3.184 3.184 0 16.632 0z" fill="#7F4DA0"/><path d="M29.516 21.506c-.089-.71-.31-1.266-.705-1.76-.512-.634-1.167-1.014-2.136-1.24-.632-.15-.887-.133-1.115.072-.213.191-.255.576-.092.825.114.18.246.245.613.316.489.088.826.203 1.133.375.652.37.956.947.988 1.883.016.439.054.574.21.73.29.284.806.23 1.025-.112.08-.128.093-.184.101-.482a4.651 4.651 0 00-.022-.607z" fill="#fff"/><path d="M32.07 22.305c-.13-2.172-.995-3.92-2.545-5.15-.873-.69-1.929-1.165-3.086-1.396-.424-.083-1.204-.15-1.338-.112a.82.82 0 00-.384.291c-.085.132-.104.426-.032.596.116.284.332.384.936.436.931.08 1.892.4 2.618.876a5.418 5.418 0 011.913 2.151c.368.747.595 1.824.588 2.788-.002.349.053.546.196.69.216.221.53.27.808.123.308-.159.38-.438.325-1.293zm2.825 8.365a2.37 2.37 0 00-.217-.426c-.454-.674-2.898-2.55-4.118-3.163-.697-.351-1.213-.468-1.596-.359-.411.114-.628.302-1.317 1.142-.278.337-.563.653-.64.703-.187.127-.555.23-.815.23-.603-.003-1.696-.386-2.537-.89-.654-.39-1.491-1.089-2.134-1.78-.758-.813-1.274-1.529-1.682-2.338-.527-1.039-.66-1.674-.44-2.138.054-.117.126-.241.159-.28.032-.036.372-.309.747-.607.736-.575.855-.706.992-1.1.174-.5.127-1.01-.14-1.524-.206-.39-.744-1.242-1.134-1.791-.516-.724-1.8-2.27-2.057-2.48-.462-.368-1.054-.432-1.708-.184-.689.262-1.981 1.284-2.533 1.997-.499.645-.69 1.103-.719 1.706-.025.496.018.702.285 1.337 2.09 4.98 5.209 8.955 9.494 12.111 2.238 1.65 4.559 2.905 6.966 3.764 1.404.5 2.014.524 2.733.113.303-.177 1.054-.933 1.472-1.483.693-.915.95-1.337 1.022-1.673.05-.231.01-.632-.083-.887z" fill="#fff"/><path d="M34.669 22.804a9.73 9.73 0 00-.697-3.36c-.434-1.106-.873-1.827-1.703-2.802-.785-.915-1.394-1.437-2.36-2.019-1.348-.81-2.99-1.346-4.828-1.571-.627-.079-.769-.073-.961.053-.373.238-.368.833.006 1.068.124.075.234.102.735.167.77.101 1.265.197 1.853.354 2.304.618 4.075 1.881 5.26 3.756.99 1.562 1.402 3.125 1.344 5.12-.02.675-.006.794.1.956.2.302.732.362 1.004.111.17-.152.201-.267.235-.845.016-.3.02-.745.012-.988z" fill="#fff"/></svg>