<svg width="48" height="48" fill="none" xmlns="http://www.w3.org/2000/svg"><path fill-rule="evenodd" clip-rule="evenodd" d="M16.632 0h14.736C44.816 0 48 3.184 48 16.632v14.736C48 44.816 44.816 48 31.368 48H16.632C3.184 48 0 44.816 0 31.368V16.632C0 3.184 3.184 0 16.632 0z" fill="#25D366"/><path fill-rule="evenodd" clip-rule="evenodd" d="M23.991 37.76h-.005a13.853 13.853 0 01-6.63-1.69L10 38l1.968-7.19a13.849 13.849 0 01-1.852-6.936C10.12 16.224 16.344 10 23.991 10a13.785 13.785 0 019.815 4.07 13.79 13.79 0 014.06 9.815c-.003 7.648-6.225 13.871-13.875 13.874zm-6.295-4.201l.421.25c1.77 1.05 3.8 1.606 5.87 1.607h.004c6.357 0 11.53-5.173 11.532-11.532a11.463 11.463 0 00-3.374-8.159 11.453 11.453 0 00-8.153-3.381c-6.361 0-11.534 5.172-11.537 11.53 0 2.18.609 4.302 1.763 6.138l.274.436-1.165 4.256 4.365-1.145zm12.81-6.687c.242.117.406.196.475.312.087.145.087.839-.202 1.649-.289.81-1.674 1.549-2.34 1.648-.597.09-1.353.127-2.183-.137a19.92 19.92 0 01-1.977-.73c-3.25-1.404-5.446-4.554-5.861-5.15l-.061-.085-.003-.004c-.183-.245-1.413-1.885-1.413-3.582 0-1.598.785-2.434 1.146-2.82l.068-.073c.317-.347.693-.434.924-.434.231 0 .462.002.665.013h.077c.202 0 .454-.002.702.595l.384.93c.298.725.627 1.528.685 1.644.087.174.145.376.03.607l-.05.1c-.086.176-.15.307-.297.479-.058.067-.118.14-.178.213a5.68 5.68 0 01-.342.394c-.174.173-.355.36-.152.707.202.348.898 1.483 1.928 2.402a8.96 8.96 0 002.56 1.618c.094.041.171.075.228.103.347.174.549.144.751-.087.203-.231.867-1.012 1.098-1.36.231-.346.462-.288.78-.173.318.116 2.022.955 2.369 1.128.068.034.13.065.19.093z" fill="#fff"/></svg>